<?xml version="1.0" encoding="utf-8"?>
<!-- Generator: Adobe Illustrator 23.0.6, SVG Export Plug-In . SVG Version: 6.00 Build 0)  -->
<svg version="1.1"
	 id="svg2" xmlns:cc="http://creativecommons.org/ns#" xmlns:dc="http://purl.org/dc/elements/1.1/" xmlns:rdf="http://www.w3.org/1999/02/22-rdf-syntax-ns#"
	 xmlns="http://www.w3.org/2000/svg" xmlns:xlink="http://www.w3.org/1999/xlink" x="0px" y="0px" viewBox="0 0 500 508"
	 style="enable-background:new 0 0 500 508;" xml:space="preserve">
<style type="text/css">
	.st0{fill:#FCFCFB;}
	.st1{fill:#FEE600;}
	.st2{fill:#008DD1;}
	.st3{fill:#000001;}
</style>
<g id="g2987">
	<circle class="st0" cx="251.1" cy="272.8" r="218.7"/>
	<path id="path2993" class="st1" d="M205,494.4c-19.5-3-30.8-5.4-48.5-10.5c-16.5-4.8-46.7-14.5-51.2-16.6
		c-4.7-2.1-27.9-32.3-39.6-51.5c-8.6-14.1-20.6-34.5-23-39.4c-11.3-22.4-23.2-58.6-27.2-82.9c-4.3-26.6-4.9-35.5-5-72.7l-0.1-36.7
		l8-11.8c27.7-40.9,61.2-78,89-98.7c13.5-10.1,37-24.5,51.3-31.7c17-8.5,57.2-22.9,80.9-29l11.6-3l11.1,3.2
		c12.8,3.6,45.7,14.9,59.4,20.2C336.3,39.1,346.4,44,362,53c35.8,20.6,56.9,38.2,86.1,72.1c15.8,18.3,40.1,52.6,42,59.3
		c2.1,7.4,0.6,74.3-2.1,93.1c-4.8,33.3-9,50.2-19.4,77.5c-5.7,15.2-15.5,34.6-22.6,45c-0.9,1.4-3.4,5.6-5.5,9.3
		c-8.1,14.7-39.6,56.9-43.2,58c-1,0.3-9,2.8-17.8,5.7c-24.8,8-46.2,14-61,17c-28.1,5.8-40.5,7.1-70.8,6.9
		C224.4,496.8,218.3,496.5,205,494.4L205,494.4z M152,441.5c3.9-0.8,13.4-4,21-7c17.9-7.1,23.6-8.5,34.1-8.5
		c10.3,0,25.5,3.3,34.2,7.4c7.1,3.4,8.9,3.2,27.6-3.1l13.4-4.5l12.6,0.4c13.3,0.4,17.8,1.5,30.6,7c13.9,6,29.7,10.4,33,9.2
		c2.1-0.8,1.9-4.1-0.2-5.2c-1-0.5-5-1.2-8.9-1.5c-6.5-0.5-18-3.8-25.9-7.3c-10.8-4.8-15.1-5.8-27.4-6.2c-9-0.3-13.7,0-17,1.1
		c-2.5,0.8-6.4,1.8-8.6,2.1c-2.2,0.4-8,2.1-12.9,3.8l-8.9,3.1l-10.6-3.4c-5.9-1.9-11.1-3.7-11.7-4.1c-2-1.4-14.1-2.8-24.6-2.8
		c-11.4,0-12.4,0.3-31.8,8.4c-9,3.8-11.5,4.4-19.9,5c-6.4,0.4-10.4,3.4-8.2,6.1C143.5,443.3,143.2,443.3,152,441.5L152,441.5z
		 M353.9,426.6c-0.1-4.1-2.4-13.3-3.7-14.9c-0.7-0.9-3.4-1.8-6-2c-2.6-0.3-7.4-1.6-10.7-3C309,396.5,306,395.6,296,395.7
		c-5.2,0-13.1,0.8-17.5,1.6c-9.1,1.8-22.2,6.2-24.6,8.4c-2.2,1.9-2.3,13.8-0.1,15.9c0.8,0.8,1.8,1.3,2.1,1.1
		c10.3-5.6,21.6-7.9,39.3-7.9c13.3,0,13.9,0.1,24,3.7c22.9,8.3,32.3,11.3,33.5,10.8C353.4,429,354,427.8,353.9,426.6L353.9,426.6z
		 M161.1,425.4c5.2-2,10.7-4.1,12.4-4.6c1.6-0.6,3.4-1.4,4-1.8c3.3-2.5,12.7-4,25.1-4c14.5,0,25.4,1.7,33.3,5.1
		c7.3,3.1,8.1,2.5,8.1-6.5c0-9-0.7-9.8-10.6-13.2c-17.2-5.8-31.1-5.3-48.1,1.8c-5.1,2.1-9.9,3.9-10.5,3.9c-0.7,0-2.6,0.7-4.3,1.6
		c-1.6,0.9-6.3,2-10.3,2.4c-4,0.4-7.8,1.2-8.3,1.8c-1.8,1.8-4.4,13.4-3.5,15.7C149.2,429.7,150.6,429.4,161.1,425.4L161.1,425.4z
		 M165,383.4c20.8-3.1,34.8-7.2,32.3-9.4c-0.4-0.4-4-1.7-7.9-2.8c-7.8-2.3-16.3-8-22.7-15.1c-9.6-10.7-13.3-26.7-10.4-45.7
		c0.9-5.9,3.1-16,4.8-22.3c4.5-16.4,5.9-22.8,5.9-28.5c0.1-9.3-6-15.2-14.9-14.3c-2.5,0.3-11.8,3.3-20.6,6.7
		c-26.4,10.3-28.9,11.1-36.1,11.1c-10.9,0-16.9-4.3-19.6-14.2c-1.1-4-1-6.1,0.4-13.6c3.1-16.2,1.6-17.4-5-4.2
		c-12.3,24.7-12.9,41.3-1.7,47.7c5.1,2.9,17.5,7,23.9,7.8c2.8,0.4,5.8,1.1,6.8,1.6c2.3,1.2,2.2,5.1-0.2,7.3
		c-1.8,1.7-2.4,1.7-11.2-0.4c-5.1-1.2-10.5-2.8-12-3.6c-1.5-0.8-3.7-1.4-4.8-1.4c-2.8,0-2.7,4,0.1,9.8c4.5,9.4,12.4,13.9,26.7,15.3
		c8.3,0.8,10.5,2.4,10,7c-0.3,2.2-0.8,2.5-4.6,2.8c-2.4,0.2-8-0.7-12.5-1.9c-14.4-3.8-16.9-2.6-9.7,4.9c6,6.3,11.3,8.3,23.9,8.9
		c11,0.5,14.1,1.7,14.1,5.3c0,0.9-0.9,2.5-2,3.5c-1.7,1.6-3.1,1.7-10.8,1.1c-15-1.2-15.6-1.2-16,0.2c-0.7,1.9,8.3,10.1,13.5,12.4
		c3.1,1.4,7.5,2.1,14.6,2.5c12.1,0.6,15.6,1.7,15.6,4.9c0,3.8-2.6,5.5-8.6,5.5c-3,0-7.5-0.5-10-1.1c-8.5-2.1-7.9,3.4,0.9,8.5
		C128,385.6,141.9,386.8,165,383.4L165,383.4z M255,381.7c1.1-2.3,1.9-5.4,2-6.8c0-3-3.2-12.6-4.8-14.2c-3.1-3.1-7.9,9-6.7,16.9
		c0.7,4.6,3.4,8.3,6.1,8.3C252.4,386,254,384.1,255,381.7L255,381.7z M371.3,383.9c10.3-1.7,20.7-7.7,20.7-11.9c0-2.8-1.4-3.1-6-1.5
		c-5.1,1.8-16.1,2-17.8,0.3c-0.7-0.7-1.2-2.5-1.2-4c0-3.6,2.8-4.8,11.2-4.8c11.5,0,18.3-1.8,24.8-6.6c5.4-4,8.3-8.4,6.7-10.1
		c-0.3-0.3-3.4-0.1-7,0.5c-8,1.4-16.3,1.4-18.8,0.1c-2.3-1.2-2.6-5.2-0.5-7.2c1-1,4.9-1.6,12.3-2c13.1-0.7,18.1-2.6,24.1-9.1
		c6.9-7.5,4.5-8.7-10.2-4.7c-4.3,1.2-9.7,2-12,1.9c-3.8-0.3-4.2-0.5-4.4-3.4c-0.4-4.3,1.6-5.5,10.7-6.5c13.7-1.4,21.7-6.4,26.2-16.4
		c3.4-7.5,1.7-10.6-4.2-7.5c-3.5,1.9-21.2,6-23.1,5.4c-2.3-0.7-3.6-5.2-2.2-7.4c0.6-0.9,3.2-1.9,6.4-2.4c7.7-1.1,18.6-4.5,24.2-7.5
		c11.4-6.2,11.7-20.3,1-44.6c-4-9.1-6.2-12.5-8-12.6c-1.5,0-1.6,2.3-0.2,7c2.1,7.1,3,16.1,1.9,20.1c-1.2,4.5-5.9,10.3-10.1,12.4
		c-1.7,0.9-5.7,1.4-9.8,1.4c-5.7,0-8.9-0.7-16.3-3.5c-41.1-15.7-41.9-16-47.7-13c-8.3,4.3-9.2,12.8-3.5,33.7c6.3,23,7.5,30,7.5,41.9
		c0,8.3-0.5,12.9-2,17.9c-4.4,14.7-19.3,28.5-34.3,31.9c-4.7,1.1-6.5,2.6-4.9,4.1c2.1,2.1,29.7,7.5,47.3,9.2
		C356.2,385.7,363.3,385.2,371.3,383.9L371.3,383.9z M237.4,383.1c0.3-0.5-0.1-2.8-1-5.2c-1.9-5.4-1.3-8.2,3.7-18.1
		c2.1-4.3,3.9-8.2,3.9-8.8s-2-1-4.5-1c-4.1,0-5-0.5-10.3-5.8c-7.4-7.2-10.2-14-10.2-24.5c0-9.9,1.6-15.1,9.2-30.2
		c3.6-7.1,6.8-14.4,7.2-16.2c0.4-1.7,1.8-4.3,3.2-5.7c1.5-1.5,3.6-6.1,5.3-11.4c1.5-4.9,3.3-9.8,3.9-11c0.9-1.7,0.7-3.2-1.3-7.7
		c-3.4-7.6-5.5-7.5-5.5,0.2c0,7.6-2.2,17.4-5.4,24.3c-2.3,5.1-5.9,9.8-20.9,28.1c-3.3,4-6.1,8.7-7.2,12c-3,9.3-4.4,9.8-12.6,4.1
		c-7.2-5-11.6-10.8-13.1-17.6c-1-4.6-0.9-7.5,0.5-18.1c1-6.9,1.6-15.1,1.3-18.2c-0.4-4.7-1-6.1-3.6-8.5c-2-1.8-4.3-2.8-6.2-2.8
		c-3.7,0-3.8,1.7-0.6,6.8c1.3,2.1,2.7,5.2,3.1,7c0.7,3.4-0.7,13.8-3,23.2c-8.2,32.5-9.6,42.4-7.5,54.5c2.1,11.9,7.3,19.5,18.1,26
		c5.6,3.4,19.5,8.5,23.3,8.5c3.2,0,10.7,3.7,14.1,6.9c4.8,4.4,12.7,10.1,14.1,10.1C236.3,384,237.1,383.6,237.4,383.1L237.4,383.1z
		 M269.5,382.1c1.6-1,6.1-4.4,10-7.5c5.8-4.7,8.2-5.9,14-7.2c23.6-5.3,35.9-14.2,41.1-29.5c1.4-4.1,1.9-8.2,1.8-16.5
		c-0.1-9.9-0.6-13.2-5.4-32c-4.2-16.7-5.3-22.7-5.4-29.5c-0.1-7.8,0.2-8.9,2.8-12.7c3.2-4.7,2.9-6.3-1.2-6.3
		c-3.9,0-8.9,5.4-9.7,10.6c-0.4,2.5,0.2,9.3,1.5,17.5c2.5,15.4,2.2,19.3-2,26.7c-3.3,5.8-13.7,14.2-17.6,14.2c-2.5,0-4.3-2.6-4.3-6
		c0-3.4-4.3-9.9-13.6-20.6c-16.1-18.5-19.3-25.2-20.2-41.1c-0.6-10.8-1.6-12.7-4.6-8c-2.3,3.6-2.9,7.5-1.7,12
		c0.6,2.3,1.9,7.6,2.8,11.7c1.6,6.9,5.1,14.6,15.1,33c6.1,11.3,8.3,18.8,8.3,28.9c0,7.1-0.5,9.5-2.6,14.1c-4,8.6-12,16-17.4,16
		c-3.2,0-3.4,2.4-0.7,7.2c1.4,2.4,3.5,6.8,4.6,9.7c2,5.2,2.1,5.7,0.5,10.3C263.3,384.1,264.3,385.3,269.5,382.1L269.5,382.1z
		 M212.4,281.2c0.8-1.5,4.3-6.6,7.8-11.3c7.1-9.6,12.4-20,11.5-22.4c-2.4-6.3-20.8,17.7-23.3,30.5
		C207.2,283.8,209.9,286,212.4,281.2L212.4,281.2z M294,282.4c0-7.7-8.2-23.4-16.2-31c-12.4-11.8-9.4,1.1,4.7,20.1
		C291.7,284,294,286.2,294,282.4L294,282.4z M219.7,243.7c2.2-2.3,5.9-5.8,8.3-7.8c4-3.2,4.4-4,4.8-9.1c0.3-3.3-0.2-8.7-1.3-13.3
		c-2.5-11.4-0.8-17.4,8.8-30.2c2.5-3.3,5-7.6,5.6-9.6c1.4-4.2,4.4-7.3,6.5-6.6c0.8,0.3,2.2,2.8,3.1,5.6c0.9,2.8,2.9,6.6,4.5,8.6
		c5.5,6.9,8.9,13.1,10.4,18.7c1.3,4.9,1.3,6.5,0.1,11.5c-0.8,3.2-1.4,9-1.4,12.9c0,6.7,0.1,7.2,3.2,10c1.8,1.6,5.6,5.3,8.5,8.3
		c4,4,5.6,5.1,6.6,4.3c0.7-0.6,2.1-5.5,3-10.9c1-5.4,2.4-11.8,3.2-14.3c0.8-2.5,1.7-6.8,2.1-9.5c0.4-2.8,1.2-6.2,1.9-7.6
		c0.7-1.4,1.6-5,2-8c0.4-3,1.2-6.8,1.9-8.4c0.7-1.7,1.5-5.3,1.9-8c0.4-2.7,1.3-7.9,2.1-11.5c0.8-3.6,2.4-11.7,3.6-18
		c2.5-13.6,4-17.4,8.1-21.6c4.2-4.3,3.5-6.4-2.9-8.7c-6.1-2.2-9-1.7-13.4,2.1c-2.7,2.4-3.2,3.7-3.9,10.2c-0.5,4.1-1.1,8.2-1.4,9
		c-0.5,1.4-3.5,19.3-5.7,34.5c-1.3,8.7-3,11.7-6.7,11.3c-4.3-0.5-4.9-4.2-2.4-14.6c1.2-4.9,2.2-10.2,2.2-11.8c0-1.6,0.7-5.4,1.5-8.4
		c0.8-3,1.9-8.8,2.6-13c0.6-4.2,1.8-9.8,2.5-12.5c0.8-2.7,1.4-6.9,1.4-9.3c0-3.9-0.6-5-5.1-9.8c-3.2-3.4-6-5.4-7.4-5.4
		c-2.1,0-2.2,0.5-2.8,13.3c-0.4,7.3-1.1,15.7-1.6,18.7s-1.5,12.2-2,20.4c-0.8,11.3-1.5,15.4-2.7,16.8c-2.3,2.5-5,2.3-6.9-0.6
		c-1.7-2.6-1.9,1.1,3-51.9c1-10.2,1.1-15.7,0.4-17.7c-1.3-3.8-12-13.1-15.1-13.1c-1.5,0-4.8,2.2-9.1,6.3c-7.9,7.3-7.6,6.1-5.2,29.7
		c4.1,39.7,4.2,41.5,3.1,45.1c-0.8,2.7-1.7,3.6-3.7,3.8c-4,0.5-5.2-2-6-12.6c-0.4-5.3-1.5-17.8-2.5-27.7c-1-9.9-1.8-20.7-1.8-24
		c-0.1-5.2-0.4-6-2.1-6.3c-1.3-0.2-3.7,1.4-6.7,4.2c-5.5,5.3-6.6,9-4.9,17.4c1.3,6.7,2.5,13.3,4.1,22.2c1.7,9.5,3.8,20.5,5.4,28.5
		c1.6,7.9,0.7,11.8-3,12.3c-3.9,0.6-5.7-3.1-7.5-15.6c-3.9-26.2-7.1-44.5-7.9-46.8c-1.2-3.3-5.7-5.9-9.9-5.9
		c-4.6,0-9.9,2.2-11.2,4.6c-0.8,1.6-0.5,2.4,2.1,4.6c4.1,3.5,5.8,7.6,8,19.2c1,5.2,2.6,13.6,3.5,18.5c0.9,4.9,2.3,10.8,3.1,13
		c0.8,2.2,1.4,5.2,1.4,6.7s0.7,4.8,1.6,7.5c0.9,2.6,2.2,7.7,2.9,11.3s1.7,8.3,2.3,10.5c2.2,8.7,5.2,23.1,5.2,25.2
		c0,2.8,1.7,7.3,2.8,7.3C215.3,248,217.5,246.1,219.7,243.7L219.7,243.7z M253.7,224.1c1-1.1,3.1-4.5,4.8-7.8c4.2-8.1,4-13-0.9-21.9
		c-5.2-9.6-6.1-10.4-8.6-7.9c-3.6,3.6-9.1,15.4-9.1,19.5c0,6,7.8,20,11.2,20C251.6,226,252.7,225.1,253.7,224.1L253.7,224.1z"/>
	<path id="path2991" class="st2" d="M205,494.4c-19.5-3-30.8-5.4-48.5-10.5c-16.5-4.8-46.7-14.5-51.2-16.6
		c-4.7-2.1-27.9-32.3-39.6-51.5c-8.6-14.1-20.6-34.5-23-39.4c-11.3-22.4-23.2-58.6-27.2-82.9c-4.3-26.6-4.9-35.5-5-72.7l-0.1-36.7
		l8-11.8c27.7-40.9,61.2-78,89-98.7c13.5-10.1,37-24.5,51.3-31.7c17-8.5,57.2-22.9,80.9-29l11.6-3l11.1,3.2
		c12.8,3.6,45.7,14.9,59.4,20.2C336.3,39.1,346.4,44,362,53c35.8,20.6,56.9,38.2,86.1,72.1c15.8,18.3,40.1,52.6,42,59.3
		c2.1,7.4,0.6,74.3-2.1,93.1c-4.8,33.3-9,50.2-19.4,77.5c-5.7,15.2-15.5,34.6-22.6,45c-0.9,1.4-3.4,5.6-5.5,9.3
		c-8.1,14.7-39.6,56.9-43.2,58c-1,0.3-9,2.8-17.8,5.7c-24.8,8-46.2,14-61,17c-28.1,5.8-40.5,7.1-70.8,6.9
		C224.4,496.8,218.3,496.5,205,494.4L205,494.4z M152,441.5c3.9-0.8,13.4-4,21-7c17.9-7.1,23.6-8.5,34.1-8.5
		c10.3,0,25.5,3.3,34.2,7.4c7.1,3.4,8.9,3.2,27.6-3.1l13.4-4.5l12.6,0.4c13.3,0.4,17.8,1.5,30.6,7c13.9,6,29.7,10.4,33,9.2
		c2.1-0.8,1.9-4.1-0.2-5.2c-1-0.5-5-1.2-8.9-1.5c-6.5-0.5-18-3.8-25.9-7.3c-10.8-4.8-15.1-5.8-27.4-6.2c-9-0.3-13.7,0-17,1.1
		c-2.5,0.8-6.4,1.8-8.6,2.1c-2.2,0.4-8,2.1-12.9,3.8l-8.9,3.1l-10.6-3.4c-5.9-1.9-11.1-3.7-11.7-4.1c-2-1.4-14.1-2.8-24.6-2.8
		c-11.4,0-12.4,0.3-31.8,8.4c-9,3.8-11.5,4.4-19.9,5c-6.4,0.4-10.4,3.4-8.2,6.1C143.5,443.3,143.2,443.3,152,441.5L152,441.5z
		 M353.9,426.6c-0.1-4.1-2.4-13.3-3.7-14.9c-0.7-0.9-3.4-1.8-6-2c-2.6-0.3-7.4-1.6-10.7-3C309,396.5,306,395.6,296,395.7
		c-5.2,0-13.1,0.8-17.5,1.6c-9.1,1.8-22.2,6.2-24.6,8.4c-2.2,1.9-2.3,13.8-0.1,15.9c0.8,0.8,1.8,1.3,2.1,1.1
		c10.3-5.6,21.6-7.9,39.3-7.9c13.3,0,13.9,0.1,24,3.7c22.9,8.3,32.3,11.3,33.5,10.8C353.4,429,354,427.8,353.9,426.6L353.9,426.6z
		 M161.1,425.4c5.2-2,10.7-4.1,12.4-4.6c1.6-0.6,3.4-1.4,4-1.8c3.3-2.5,12.7-4,25.1-4c14.5,0,25.4,1.7,33.3,5.1
		c7.3,3.1,8.1,2.5,8.1-6.5c0-9-0.7-9.8-10.6-13.2c-17.2-5.8-31.1-5.3-48.1,1.8c-5.1,2.1-9.9,3.9-10.5,3.9c-0.7,0-2.6,0.7-4.3,1.6
		c-1.6,0.9-6.3,2-10.3,2.4c-4,0.4-7.8,1.2-8.3,1.8c-1.8,1.8-4.4,13.4-3.5,15.7C149.2,429.7,150.6,429.4,161.1,425.4L161.1,425.4z
		 M165,383.4c20.8-3.1,34.8-7.2,32.3-9.4c-0.4-0.4-4-1.7-7.9-2.8c-7.8-2.3-16.3-8-22.7-15.1c-9.6-10.7-13.3-26.7-10.4-45.7
		c0.9-5.9,3.1-16,4.8-22.3c4.5-16.4,5.9-22.8,5.9-28.5c0.1-9.3-6-15.2-14.9-14.3c-2.5,0.3-11.8,3.3-20.6,6.7
		c-26.4,10.3-28.9,11.1-36.1,11.1c-10.9,0-16.9-4.3-19.6-14.2c-1.1-4-1-6.1,0.4-13.6c3.1-16.2,1.6-17.4-5-4.2
		c-12.3,24.7-12.9,41.3-1.7,47.7c5.1,2.9,17.5,7,23.9,7.8c2.8,0.4,5.8,1.1,6.8,1.6c2.3,1.2,2.2,5.1-0.2,7.3
		c-1.8,1.7-2.4,1.7-11.2-0.4c-5.1-1.2-10.5-2.8-12-3.6c-1.5-0.8-3.7-1.4-4.8-1.4c-2.8,0-2.7,4,0.1,9.8c4.5,9.4,12.4,13.9,26.7,15.3
		c8.3,0.8,10.5,2.4,10,7c-0.3,2.2-0.8,2.5-4.6,2.8c-2.4,0.2-8-0.7-12.5-1.9c-14.4-3.8-16.9-2.6-9.7,4.9c6,6.3,11.3,8.3,23.9,8.9
		c11,0.5,14.1,1.7,14.1,5.3c0,0.9-0.9,2.5-2,3.5c-1.7,1.6-3.1,1.7-10.8,1.1c-15-1.2-15.6-1.2-16,0.2c-0.7,1.9,8.3,10.1,13.5,12.4
		c3.1,1.4,7.5,2.1,14.6,2.5c12.1,0.6,15.6,1.7,15.6,4.9c0,3.8-2.6,5.5-8.6,5.5c-3,0-7.5-0.5-10-1.1c-8.5-2.1-7.9,3.4,0.9,8.5
		C128,385.6,141.9,386.8,165,383.4L165,383.4z M255,381.7c1.1-2.3,1.9-5.4,2-6.8c0-3-3.2-12.6-4.8-14.2c-3.1-3.1-7.9,9-6.7,16.9
		c0.7,4.6,3.4,8.3,6.1,8.3C252.4,386,254,384.1,255,381.7L255,381.7z M371.3,383.9c10.3-1.7,20.7-7.7,20.7-11.9c0-2.8-1.4-3.1-6-1.5
		c-5.1,1.8-16.1,2-17.8,0.3c-0.7-0.7-1.2-2.5-1.2-4c0-3.6,2.8-4.8,11.2-4.8c11.5,0,18.3-1.8,24.8-6.6c5.4-4,8.3-8.4,6.7-10.1
		c-0.3-0.3-3.4-0.1-7,0.5c-8,1.4-16.3,1.4-18.8,0.1c-2.3-1.2-2.6-5.2-0.5-7.2c1-1,4.9-1.6,12.3-2c13.1-0.7,18.1-2.6,24.1-9.1
		c6.9-7.5,4.5-8.7-10.2-4.7c-4.3,1.2-9.7,2-12,1.9c-3.8-0.3-4.2-0.5-4.4-3.4c-0.4-4.3,1.6-5.5,10.7-6.5c13.7-1.4,21.7-6.4,26.2-16.4
		c3.4-7.5,1.7-10.6-4.2-7.5c-3.5,1.9-21.2,6-23.1,5.4c-2.3-0.7-3.6-5.2-2.2-7.4c0.6-0.9,3.2-1.9,6.4-2.4c7.7-1.1,18.6-4.5,24.2-7.5
		c11.4-6.2,11.7-20.3,1-44.6c-4-9.1-6.2-12.5-8-12.6c-1.5,0-1.6,2.3-0.2,7c2.1,7.1,3,16.1,1.9,20.1c-1.2,4.5-5.9,10.3-10.1,12.4
		c-1.7,0.9-5.7,1.4-9.8,1.4c-5.7,0-8.9-0.7-16.3-3.5c-41.1-15.7-41.9-16-47.7-13c-8.3,4.3-9.2,12.8-3.5,33.7c6.3,23,7.5,30,7.5,41.9
		c0,8.3-0.5,12.9-2,17.9c-4.4,14.7-19.3,28.5-34.3,31.9c-4.7,1.1-6.5,2.6-4.9,4.1c2.1,2.1,29.7,7.5,47.3,9.2
		C356.2,385.7,363.3,385.2,371.3,383.9L371.3,383.9z M237.4,383.1c0.3-0.5-0.1-2.8-1-5.2c-1.9-5.4-1.3-8.2,3.7-18.1
		c2.1-4.3,3.9-8.2,3.9-8.8s-2-1-4.5-1c-4.1,0-5-0.5-10.3-5.8c-7.4-7.2-10.2-14-10.2-24.5c0-9.9,1.6-15.1,9.2-30.2
		c3.6-7.1,6.8-14.4,7.2-16.2c0.4-1.7,1.8-4.3,3.2-5.7c1.5-1.5,3.6-6.1,5.3-11.4c1.5-4.9,3.3-9.8,3.9-11c0.9-1.7,0.7-3.2-1.3-7.7
		c-3.4-7.6-5.5-7.5-5.5,0.2c0,7.6-2.2,17.4-5.4,24.3c-2.3,5.1-5.9,9.8-20.9,28.1c-3.3,4-6.1,8.7-7.2,12c-3,9.3-4.4,9.8-12.6,4.1
		c-7.2-5-11.6-10.8-13.1-17.6c-1-4.6-0.9-7.5,0.5-18.1c1-6.9,1.6-15.1,1.3-18.2c-0.4-4.7-1-6.1-3.6-8.5c-2-1.8-4.3-2.8-6.2-2.8
		c-3.7,0-3.8,1.7-0.6,6.8c1.3,2.1,2.7,5.2,3.1,7c0.7,3.4-0.7,13.8-3,23.2c-8.2,32.5-9.6,42.4-7.5,54.5c2.1,11.9,7.3,19.5,18.1,26
		c5.6,3.4,19.5,8.5,23.3,8.5c3.2,0,10.7,3.7,14.1,6.9c4.8,4.4,12.7,10.1,14.1,10.1C236.3,384,237.1,383.6,237.4,383.1L237.4,383.1z
		 M269.5,382.1c1.6-1,6.1-4.4,10-7.5c5.8-4.7,8.2-5.9,14-7.2c23.6-5.3,35.9-14.2,41.1-29.5c1.4-4.1,1.9-8.2,1.8-16.5
		c-0.1-9.9-0.6-13.2-5.4-32c-4.2-16.7-5.3-22.7-5.4-29.5c-0.1-7.8,0.2-8.9,2.8-12.7c3.2-4.7,2.9-6.3-1.2-6.3
		c-3.9,0-8.9,5.4-9.7,10.6c-0.4,2.5,0.2,9.3,1.5,17.5c2.5,15.4,2.2,19.3-2,26.7c-3.3,5.8-13.7,14.2-17.6,14.2c-2.5,0-4.3-2.6-4.3-6
		c0-3.4-4.3-9.9-13.6-20.6c-16.1-18.5-19.3-25.2-20.2-41.1c-0.6-10.8-1.6-12.7-4.6-8c-2.3,3.6-2.9,7.5-1.7,12
		c0.6,2.3,1.9,7.6,2.8,11.7c1.6,6.9,5.1,14.6,15.1,33c6.1,11.3,8.3,18.8,8.3,28.9c0,7.1-0.5,9.5-2.6,14.1c-4,8.6-12,16-17.4,16
		c-3.2,0-3.4,2.4-0.7,7.2c1.4,2.4,3.5,6.8,4.6,9.7c2,5.2,2.1,5.7,0.5,10.3C263.3,384.1,264.3,385.3,269.5,382.1L269.5,382.1z
		 M245.5,341.5c4.2-1.3,5.3-1.3,9.3,0.1c5.4,1.8,8.6,1.2,12-2.4c4.7-5,7.3-12,7.3-19.8c0-8.9-1.6-13.8-11.3-33.1
		c-4.2-8.4-7.9-17-8.3-19.2c-0.9-5.6-2.7-7.9-5.1-6.5c-2.8,1.7-3.1,14.5-0.4,19.9c4.6,9.3,6.3,14.4,6.8,20.5c0.5,5.6,0.1,7.5-2.5,14
		c-1.7,4.1-3.3,8.7-3.7,10.3c-1.1,4.4-7.5,5.1-7.5,0.8c0-1,1.6-5.7,3.5-10.5c1.9-4.8,3.5-10.4,3.5-12.5c0-4-4.3-18.6-6.2-20.8
		c-1.9-2.3-4.7-1.5-5.3,1.5c-0.3,1.5-2.2,6.1-4.1,10.2c-7.9,16.6-9.3,27.7-4.9,37.3c2.6,5.7,5,8.8,8.1,10.6
		C239.1,343.3,239.8,343.3,245.5,341.5L245.5,341.5z M212.4,281.2c0.8-1.5,4.3-6.6,7.8-11.3c7.1-9.6,12.4-20,11.5-22.4
		c-2.4-6.3-20.8,17.7-23.3,30.5C207.2,283.8,209.9,286,212.4,281.2L212.4,281.2z M294,282.4c0-7.7-8.2-23.4-16.2-31
		c-12.4-11.8-9.4,1.1,4.7,20.1C291.7,284,294,286.2,294,282.4L294,282.4z M219.7,243.7c2.2-2.3,5.9-5.8,8.3-7.8c4-3.2,4.4-4,4.8-9.1
		c0.3-3.3-0.2-8.7-1.3-13.3c-2.5-11.4-0.8-17.4,8.8-30.2c2.5-3.3,5-7.6,5.6-9.6c1.4-4.2,4.4-7.3,6.5-6.6c0.8,0.3,2.2,2.8,3.1,5.6
		c0.9,2.8,2.9,6.6,4.5,8.6c5.5,6.9,8.9,13.1,10.4,18.7c1.3,4.9,1.3,6.5,0.1,11.5c-0.8,3.2-1.4,9-1.4,12.9c0,6.7,0.1,7.2,3.2,10
		c1.8,1.6,5.6,5.3,8.5,8.3c4,4,5.6,5.1,6.6,4.3c0.7-0.6,2.1-5.5,3-10.9c1-5.4,2.4-11.8,3.2-14.3c0.8-2.5,1.7-6.8,2.1-9.5
		c0.4-2.8,1.2-6.2,1.9-7.6c0.7-1.4,1.6-5,2-8c0.4-3,1.2-6.8,1.9-8.4c0.7-1.7,1.5-5.3,1.9-8c0.4-2.7,1.3-7.9,2.1-11.5
		c0.8-3.6,2.4-11.7,3.6-18c2.5-13.6,4-17.4,8.1-21.6c4.2-4.3,3.5-6.4-2.9-8.7c-6.1-2.2-9-1.7-13.4,2.1c-2.7,2.4-3.2,3.7-3.9,10.2
		c-0.5,4.1-1.1,8.2-1.4,9c-0.5,1.4-3.5,19.3-5.7,34.5c-1.3,8.7-3,11.7-6.7,11.3c-4.3-0.5-4.9-4.2-2.4-14.6
		c1.2-4.9,2.2-10.2,2.2-11.8c0-1.6,0.7-5.4,1.5-8.4c0.8-3,1.9-8.8,2.6-13c0.6-4.2,1.8-9.8,2.5-12.5c0.8-2.7,1.4-6.9,1.4-9.3
		c0-3.9-0.6-5-5.1-9.8c-3.2-3.4-6-5.4-7.4-5.4c-2.1,0-2.2,0.5-2.8,13.3c-0.4,7.3-1.1,15.7-1.6,18.7s-1.5,12.2-2,20.4
		c-0.8,11.3-1.5,15.4-2.7,16.8c-2.3,2.5-5,2.3-6.9-0.6c-1.7-2.6-1.9,1.1,3-51.9c1-10.2,1.1-15.7,0.4-17.7
		c-1.3-3.8-12-13.1-15.1-13.1c-1.5,0-4.8,2.2-9.1,6.3c-7.9,7.3-7.6,6.1-5.2,29.7c4.1,39.7,4.2,41.5,3.1,45.1
		c-0.8,2.7-1.7,3.6-3.7,3.8c-4,0.5-5.2-2-6-12.6c-0.4-5.3-1.5-17.8-2.5-27.7c-1-9.9-1.8-20.7-1.8-24c-0.1-5.2-0.4-6-2.1-6.3
		c-1.3-0.2-3.7,1.4-6.7,4.2c-5.5,5.3-6.6,9-4.9,17.4c1.3,6.7,2.5,13.3,4.1,22.2c1.7,9.5,3.8,20.5,5.4,28.5c1.6,7.9,0.7,11.8-3,12.3
		c-3.9,0.6-5.7-3.1-7.5-15.6c-3.9-26.2-7.1-44.5-7.9-46.8c-1.2-3.3-5.7-5.9-9.9-5.9c-4.6,0-9.9,2.2-11.2,4.6
		c-0.8,1.6-0.5,2.4,2.1,4.6c4.1,3.5,5.8,7.6,8,19.2c1,5.2,2.6,13.6,3.5,18.5c0.9,4.9,2.3,10.8,3.1,13c0.8,2.2,1.4,5.2,1.4,6.7
		s0.7,4.8,1.6,7.5c0.9,2.6,2.2,7.7,2.9,11.3s1.7,8.3,2.3,10.5c2.2,8.7,5.2,23.1,5.2,25.2c0,2.8,1.7,7.3,2.8,7.3
		C215.3,248,217.5,246.1,219.7,243.7L219.7,243.7z M253.7,224.1c1-1.1,3.1-4.5,4.8-7.8c4.2-8.1,4-13-0.9-21.9
		c-5.2-9.6-6.1-10.4-8.6-7.9c-3.6,3.6-9.1,15.4-9.1,19.5c0,6,7.8,20,11.2,20C251.6,226,252.7,225.1,253.7,224.1L253.7,224.1z"/>
	<path id="path2989" class="st3" d="M137.2,447.4c-3.7-1.9-5.1-5.5-3.3-8.7c4.5-8.4,6-11.6,6.6-14.7c1.6-8.3,4.8-17.1,6.8-18.5
		c1.2-0.8,4.2-1.5,6.7-1.5c6.1,0,28.7-7,32.6-10.1c3.5-2.8,13.3-4.8,23.7-4.9c9.6,0,10.8-0.2,10.5-1.7c-0.2-0.9-1.8-2.6-3.7-3.7
		c-3.3-1.9-3.5-1.9-10-0.2c-3.6,1-7.3,2.3-8.1,3.1s-3.1,1.6-5,2s-8,1.8-13.5,3.1c-22.5,5.5-37.7,6.6-50.7,3.9
		c-15.1-3.2-22.8-8.6-28.2-19.8c-2.5-5.1-4.9-8.4-8.5-11.5c-5.8-4.9-9.6-10.9-11.5-18c-0.7-2.7-2.9-7-4.8-9.4
		c-5.3-6.6-6.8-10.2-6.8-16.4c0-4.5-0.6-6.4-2.8-9.8c-4-5.8-6.1-11.8-6.9-19c-0.4-4.2-1.5-7.5-3.5-10.6c-3.6-5.6-4.8-10-4.8-17
		c0-8.2,1.5-13.3,7.6-26c5.4-11.3,7.8-15.4,14-23.6c1.7-2.2,4.1-7,5.4-10.5c4.3-12.1,4.2-11.9,6.6-11.9c4.5,0,5,2,3.6,15.8
		c-1.3,12.7-2,18.1-4.2,30.2c-1.5,8-0.6,13,2.8,16.4c2.4,2.4,3.3,2.6,9.4,2.5c3.7-0.1,8-0.8,9.6-1.5c4.4-2.1,23.6-9.4,24.6-9.4
		c0.5,0,2.8-0.8,5.1-1.9c2.3-1,8.1-3.1,13.1-4.6c7.6-2.3,10-2.7,15.9-2.1c4.4,0.4,8.1,0.2,10.1-0.5c4.3-1.5,9.7,1,13.6,6.3
		c3.8,5.2,4.5,12.4,2.5,25.8c-2.2,15.4-2,19.7,1.2,26.1c4.1,8.1,5.6,7.3,6.4-3.6c0.6-8.9,3.2-19.4,6.5-25.6c1.8-3.5,1.5-9.8-1-19.9
		c-0.8-3-1.9-8-2.5-11c-0.6-3-2-9.3-3.1-14c-2.7-11.2-4.6-19.7-14.6-65c-3-13.6-3.4-14.9-6.1-18.1c-2.6-3.1-2.8-3.1-8.6-2.5
		c-6.3,0.7-8.7-0.3-8.7-3.5c0-1.8,8.1-7.7,13.9-10.2c1.4-0.6,4.4-2.4,6.6-3.9c4.6-3.2,12.9-4.7,16.2-2.9c2.8,1.5,4.1,0.8,8.4-4.9
		c2-2.7,5.9-6.3,8.5-8.1s6.1-4.8,7.7-6.7c2.8-3.3,3-3.4,8.5-2.8l5.6,0.7l6-6.1c4-4,6.8-6.1,8.3-6.1c1.6,0,4.5,2.1,8.5,6.1l6.2,6.1
		l5.3-0.6c5.1-0.6,5.4-0.5,8.5,2.8c1.8,1.9,5.3,4.8,7.9,6.6s5.7,4.5,7,6.2c5.8,7.6,6.2,7.9,10.9,6.7c5.2-1.3,11.8,0.1,16,3.5
		c1.5,1.2,6.4,4.2,10.8,6.6c8.5,4.6,9.8,6.1,8.1,9.3c-1,1.8-1.7,1.9-7,1.3c-10.3-1.2-11.5,0.8-16.9,27c-1.3,6.1-4.7,21.8-7.7,35
		c-3,13.2-5.9,26.3-6.4,29s-1.6,7.1-2.4,9.6c-0.7,2.5-1.6,6.6-2,9s-1.3,6.8-2.1,9.8c-1.4,5-1.4,5.6,0.8,11c1.2,3.1,2.7,6.2,3.2,6.9
		c1.3,1.6,3.9,19.9,3.3,22.6c-1.4,5.9,4.1,6.1,6.8,0.3c2.7-5.7,3.1-12.9,1.3-23.3c-3.1-18.1-1.7-26.6,5.3-32.5
		c3.6-3,8.6-4.3,10.5-2.8c0.9,0.8,4,0.9,9.3,0.5c8.6-0.7,12.8,0.3,33.3,8.1c4.7,1.8,9.6,3.6,11,4c2.5,0.7,6.1,2.2,13,5.2
		c5.3,2.3,15,3.3,18,1.8c6.9-3.5,7.6-7.6,4.6-25.8c-2.6-15.6-4.1-33.3-3.1-36.6c0.8-2.4,4.7-2.9,6.3-0.9c0.5,0.7,2.1,4.7,3.5,8.9
		c1.6,4.7,4.4,10.2,7.5,14.5c5.8,8,15.6,26.8,17.8,34.2c3.4,11.4,2.4,22.5-2.6,30.3c-2.4,3.7-3.4,6.7-3.9,11.7
		c-0.8,7.5-2.3,11.5-6.8,18.6c-2.7,4.2-3,5.5-2.5,9.2c0.6,4.7-1.7,10.6-6.1,15.4c-2.9,3.2-5.1,7.5-5.9,11.9c-1,5-6,12.3-12.1,17.5
		c-3,2.6-5.6,5.7-6,7.3c-0.4,1.5-2.1,5-3.8,7.7c-8.5,13.3-30.9,19.4-55.3,15c-16.1-2.9-18.4-3.1-18.9-2.4
		c-0.9,1.4,10.1,6.6,18.7,8.9c4.6,1.2,9.5,2.6,10.9,2.9c2.8,0.8,5.5,5.6,6.5,11.6c1,6.4,4.6,16.5,7.1,20.3c3.1,4.5,3,5.7-0.6,9.3
		c-2.6,2.6-3.6,2.9-8.9,2.9c-9,0-18.3-2.3-33.9-8.4c-23.4-9.1-33.7-9.3-55.7-1.1c-13.9,5.2-20.1,5.1-34.7-0.3
		c-20.9-7.8-33.1-7.8-52.7,0.2C158.5,448.3,144.1,451,137.2,447.4L137.2,447.4z M152,441.5c3.9-0.8,13.4-4,21-7
		c17.9-7.1,23.6-8.5,34.1-8.5c10.3,0,25.5,3.3,34.2,7.4c7.1,3.4,8.9,3.2,27.6-3.1l13.4-4.5l12.6,0.4c13.3,0.4,17.8,1.5,30.6,7
		c13.9,6,29.7,10.4,33,9.2c2.1-0.8,1.9-4.1-0.2-5.2c-1-0.5-5-1.2-8.9-1.5c-6.5-0.5-18-3.8-25.9-7.3c-10.8-4.8-15.1-5.8-27.4-6.2
		c-9-0.3-13.7,0-17,1.1c-2.5,0.8-6.4,1.8-8.6,2.1c-2.2,0.4-8,2.1-12.9,3.8l-8.9,3.1l-10.6-3.4c-5.9-1.9-11.1-3.7-11.7-4.1
		c-2-1.4-14.1-2.8-24.6-2.8c-11.4,0-12.4,0.3-31.8,8.4c-9,3.8-11.5,4.4-19.9,5c-6.4,0.4-10.4,3.4-8.2,6.1
		C143.5,443.3,143.2,443.3,152,441.5L152,441.5z M353.9,426.6c-0.1-4.1-2.4-13.3-3.7-14.9c-0.7-0.9-3.4-1.8-6-2
		c-2.6-0.3-7.4-1.6-10.7-3C309,396.5,306,395.6,296,395.7c-5.2,0-13.1,0.8-17.5,1.6c-9.1,1.8-22.2,6.2-24.6,8.4
		c-2.2,1.9-2.3,13.8-0.1,15.9c0.8,0.8,1.8,1.3,2.1,1.1c10.3-5.6,21.6-7.9,39.3-7.9c13.3,0,13.9,0.1,24,3.7
		c22.9,8.3,32.3,11.3,33.5,10.8C353.4,429,354,427.8,353.9,426.6L353.9,426.6z M161.1,425.4c5.2-2,10.7-4.1,12.4-4.6
		c1.6-0.6,3.4-1.4,4-1.8c3.3-2.5,12.7-4,25.1-4c14.5,0,25.4,1.7,33.3,5.1c7.3,3.1,8.1,2.5,8.1-6.5c0-9-0.7-9.8-10.6-13.2
		c-17.2-5.8-31.1-5.3-48.1,1.8c-5.1,2.1-9.9,3.9-10.5,3.9c-0.7,0-2.6,0.7-4.3,1.6c-1.6,0.9-6.3,2-10.3,2.4c-4,0.4-7.8,1.2-8.3,1.8
		c-1.8,1.8-4.4,13.4-3.5,15.7C149.2,429.7,150.6,429.4,161.1,425.4L161.1,425.4z M293.5,386c0.3-0.6-0.6-1.5-2.1-2
		c-3-1.1-7.5-0.1-8.2,1.8C282.7,387.3,292.6,387.5,293.5,386L293.5,386z M165,383.4c20.8-3.1,34.8-7.2,32.3-9.4
		c-0.4-0.4-4-1.7-7.9-2.8c-7.8-2.3-16.3-8-22.7-15.1c-9.6-10.7-13.3-26.7-10.4-45.7c0.9-5.9,3.1-16,4.8-22.3
		c4.5-16.4,5.9-22.8,5.9-28.5c0.1-9.3-6-15.2-14.9-14.3c-2.5,0.3-11.8,3.3-20.6,6.7c-26.4,10.3-28.9,11.1-36.1,11.1
		c-10.9,0-16.9-4.3-19.6-14.2c-1.1-4-1-6.1,0.4-13.6c3.1-16.2,1.6-17.4-5-4.2c-12.3,24.7-12.9,41.3-1.7,47.7
		c5.1,2.9,17.5,7,23.9,7.8c2.8,0.4,5.8,1.1,6.8,1.6c2.3,1.2,2.2,5.1-0.2,7.3c-1.8,1.7-2.4,1.7-11.2-0.4c-5.1-1.2-10.5-2.8-12-3.6
		c-1.5-0.8-3.7-1.4-4.8-1.4c-2.8,0-2.7,4,0.1,9.8c4.5,9.4,12.4,13.9,26.7,15.3c8.3,0.8,10.5,2.4,10,7c-0.3,2.2-0.8,2.5-4.6,2.8
		c-2.4,0.2-8-0.7-12.5-1.9c-14.4-3.8-16.9-2.6-9.7,4.9c6,6.3,11.3,8.3,23.9,8.9c11,0.5,14.1,1.7,14.1,5.3c0,0.9-0.9,2.5-2,3.5
		c-1.7,1.6-3.1,1.7-10.8,1.1c-15-1.2-15.6-1.2-16,0.2c-0.7,1.9,8.3,10.1,13.5,12.4c3.1,1.4,7.5,2.1,14.6,2.5
		c12.1,0.6,15.6,1.7,15.6,4.9c0,3.8-2.6,5.5-8.6,5.5c-3,0-7.5-0.5-10-1.1c-8.5-2.1-7.9,3.4,0.9,8.5C128,385.6,141.9,386.8,165,383.4
		L165,383.4z M255,381.8c1.1-2.3,1.9-5.4,2-6.8c0-3-3.2-12.6-4.8-14.2c-3.1-3.1-7.9,9-6.7,16.9c0.7,4.6,3.4,8.3,6.1,8.3
		C252.4,386,254,384.1,255,381.8L255,381.8z M371.3,383.9c10.3-1.7,20.7-7.7,20.7-11.9c0-2.8-1.4-3.1-6-1.5
		c-5.1,1.8-16.1,2-17.8,0.3c-0.7-0.7-1.2-2.5-1.2-4c0-3.6,2.8-4.8,11.2-4.8c11.5,0,18.3-1.8,24.8-6.6c5.4-4,8.3-8.4,6.7-10.1
		c-0.3-0.3-3.4-0.1-7,0.5c-8,1.4-16.3,1.4-18.8,0.1c-2.3-1.2-2.6-5.2-0.5-7.2c1-1,4.9-1.6,12.3-2c13.1-0.7,18.1-2.6,24.1-9.1
		c6.9-7.5,4.5-8.7-10.2-4.7c-4.3,1.2-9.7,2-12,1.9c-3.8-0.3-4.2-0.5-4.4-3.4c-0.4-4.3,1.6-5.5,10.7-6.5c13.7-1.4,21.7-6.4,26.2-16.4
		c3.4-7.5,1.7-10.6-4.2-7.5c-3.5,1.9-21.2,6-23.1,5.4c-2.3-0.7-3.6-5.2-2.2-7.4c0.6-0.9,3.2-1.9,6.4-2.4c7.7-1.1,18.6-4.5,24.2-7.5
		c11.4-6.2,11.7-20.3,1-44.6c-4-9.1-6.2-12.5-8-12.6c-1.5,0-1.6,2.3-0.2,7c2.1,7.1,3,16.1,1.9,20.1c-1.2,4.5-5.9,10.3-10.1,12.4
		c-1.7,0.9-5.7,1.4-9.8,1.4c-5.7,0-8.9-0.7-16.3-3.5c-41.1-15.7-41.9-16-47.7-13c-8.3,4.3-9.2,12.8-3.5,33.7c6.3,23,7.5,30,7.5,41.9
		c0,8.3-0.5,12.9-2,17.9c-4.4,14.7-19.3,28.5-34.3,31.9c-4.7,1.1-6.5,2.6-4.9,4.1c2.1,2.1,29.7,7.5,47.3,9.2
		C356.2,385.7,363.3,385.2,371.3,383.9L371.3,383.9z M237.4,383.1c0.3-0.5-0.1-2.8-1-5.2c-1.9-5.4-1.3-8.2,3.7-18.1
		c2.1-4.3,3.9-8.2,3.9-8.8s-2-1-4.5-1c-4.1,0-5-0.5-10.3-5.8c-7.4-7.2-10.2-14-10.2-24.5c0-9.9,1.6-15.1,9.2-30.2
		c3.6-7.1,6.8-14.4,7.2-16.2c0.4-1.7,1.8-4.3,3.2-5.7c1.5-1.5,3.6-6.1,5.3-11.4c1.5-4.9,3.3-9.8,3.9-11c0.9-1.7,0.7-3.2-1.3-7.7
		c-3.4-7.6-5.5-7.5-5.5,0.2c0,7.6-2.2,17.4-5.4,24.2c-2.3,5.1-5.9,9.8-20.9,28.1c-3.3,4-6.1,8.7-7.2,12c-3,9.3-4.4,9.8-12.6,4.1
		c-7.2-5-11.6-10.8-13.1-17.6c-1-4.6-0.9-7.5,0.5-18.1c1-6.9,1.6-15.1,1.3-18.2c-0.4-4.7-1-6.1-3.6-8.5c-2-1.8-4.3-2.8-6.2-2.8
		c-3.7,0-3.8,1.7-0.6,6.8c1.3,2.1,2.7,5.2,3.1,7c0.7,3.4-0.7,13.8-3,23.2c-8.2,32.5-9.6,42.4-7.5,54.5c2.1,11.9,7.3,19.5,18.1,26
		c5.6,3.4,19.5,8.5,23.3,8.5c3.2,0,10.7,3.7,14.1,6.9c4.8,4.4,12.7,10.1,14.1,10.1C236.3,384,237.1,383.6,237.4,383.1L237.4,383.1z
		 M269.5,382.1c1.6-1,6.1-4.4,10-7.5c5.8-4.7,8.2-5.9,14-7.2c23.6-5.3,35.9-14.2,41.1-29.5c1.4-4.1,1.9-8.2,1.8-16.5
		c-0.1-9.9-0.6-13.2-5.4-32c-4.2-16.7-5.3-22.7-5.4-29.5c-0.1-7.8,0.2-8.9,2.8-12.7c3.2-4.7,2.9-6.3-1.2-6.3
		c-3.9,0-8.9,5.4-9.7,10.6c-0.4,2.5,0.2,9.3,1.5,17.5c2.5,15.4,2.2,19.3-2,26.7c-3.3,5.8-13.7,14.2-17.6,14.2c-2.5,0-4.3-2.6-4.3-6
		c0-3.4-4.3-9.9-13.6-20.6c-16.1-18.5-19.3-25.2-20.2-41.1c-0.6-10.8-1.6-12.7-4.6-8c-2.3,3.6-2.9,7.5-1.7,12
		c0.6,2.3,1.9,7.6,2.8,11.7c1.6,6.9,5.1,14.6,15.1,33c6.1,11.3,8.3,18.8,8.3,28.9c0,7.1-0.5,9.5-2.6,14.1c-4,8.6-12,16-17.4,16
		c-3.2,0-3.4,2.4-0.7,7.2c1.4,2.4,3.5,6.8,4.6,9.7c2,5.2,2.1,5.7,0.5,10.3C263.3,384.1,264.3,385.3,269.5,382.1L269.5,382.1z
		 M245.5,341.6c4.2-1.3,5.3-1.3,9.3,0.1c5.4,1.8,8.6,1.2,12-2.4c4.7-5,7.3-12,7.3-19.8c0-8.9-1.6-13.8-11.3-33.1
		c-4.2-8.4-7.9-17-8.3-19.2c-0.9-5.6-2.7-7.9-5.1-6.5c-2.8,1.7-3.1,14.5-0.4,19.9c4.6,9.3,6.3,14.4,6.8,20.5c0.5,5.6,0.1,7.5-2.5,14
		c-1.7,4.1-3.3,8.7-3.7,10.3c-1.1,4.4-7.5,5.1-7.5,0.8c0-1,1.6-5.7,3.5-10.5c1.9-4.8,3.5-10.4,3.5-12.5c0-4-4.3-18.6-6.2-20.8
		c-1.9-2.3-4.7-1.5-5.3,1.5c-0.3,1.5-2.2,6.1-4.1,10.2c-7.9,16.6-9.3,27.7-4.9,37.3c2.6,5.7,5,8.8,8.1,10.6
		C239.1,343.3,239.8,343.3,245.5,341.6L245.5,341.6z M212.4,281.3c0.8-1.5,4.3-6.6,7.8-11.3c7.1-9.6,12.4-20,11.5-22.4
		c-2.4-6.3-20.8,17.7-23.3,30.5C207.2,283.8,209.9,286,212.4,281.3L212.4,281.3z M294,282.4c0-7.7-8.2-23.4-16.2-31
		c-12.4-11.8-9.4,1.1,4.7,20.1C291.7,284,294,286.2,294,282.4L294,282.4z M219.7,243.8c2.2-2.3,5.9-5.8,8.3-7.8c4-3.2,4.4-4,4.8-9.1
		c0.3-3.3-0.2-8.7-1.3-13.3c-2.5-11.4-0.8-17.4,8.8-30.2c2.5-3.3,5-7.6,5.6-9.6c1.4-4.2,4.4-7.3,6.5-6.6c0.8,0.3,2.2,2.8,3.1,5.6
		c0.9,2.8,2.9,6.6,4.5,8.6c5.5,6.9,8.9,13.1,10.4,18.7c1.3,4.9,1.3,6.5,0.1,11.5c-0.8,3.2-1.4,9-1.4,12.9c0,6.7,0.1,7.2,3.2,10
		c1.8,1.6,5.6,5.3,8.5,8.3c4,4,5.6,5.1,6.6,4.3c0.7-0.6,2.1-5.5,3-10.9c1-5.4,2.4-11.8,3.2-14.3c0.8-2.5,1.7-6.8,2.1-9.5
		c0.4-2.8,1.2-6.2,1.9-7.6c0.7-1.4,1.6-5,2-8c0.4-3,1.2-6.8,1.9-8.4c0.7-1.7,1.5-5.3,1.9-8c0.4-2.7,1.3-7.9,2.1-11.5
		c0.8-3.6,2.4-11.7,3.6-18c2.5-13.6,4-17.4,8.1-21.6c4.2-4.3,3.5-6.4-2.9-8.7c-6.1-2.2-9-1.7-13.4,2.1c-2.7,2.4-3.2,3.7-3.9,10.2
		c-0.5,4.1-1.1,8.2-1.4,9c-0.5,1.4-3.5,19.3-5.7,34.5c-1.3,8.7-3,11.7-6.7,11.3c-4.3-0.5-4.9-4.2-2.4-14.6
		c1.2-4.9,2.2-10.2,2.2-11.8c0-1.6,0.7-5.4,1.5-8.4c0.8-3,1.9-8.8,2.6-13c0.6-4.2,1.8-9.8,2.5-12.5c0.8-2.7,1.4-6.9,1.4-9.3
		c0-3.9-0.6-5-5.1-9.8c-3.2-3.4-6-5.4-7.4-5.4c-2.1,0-2.2,0.5-2.8,13.3c-0.4,7.3-1.1,15.7-1.6,18.7s-1.5,12.2-2,20.4
		c-0.8,11.3-1.5,15.4-2.7,16.8c-2.3,2.5-5,2.3-6.9-0.6c-1.7-2.6-1.9,1.1,3-51.9c1-10.2,1.1-15.7,0.4-17.7
		c-1.3-3.8-12-13.1-15.1-13.1c-1.5,0-4.8,2.2-9.1,6.3c-7.9,7.3-7.6,6.1-5.2,29.7c4.1,39.7,4.2,41.5,3.1,45.1
		c-0.8,2.7-1.7,3.6-3.7,3.8c-4,0.5-5.2-2-6-12.6c-0.4-5.3-1.5-17.8-2.5-27.7c-1-9.9-1.8-20.7-1.8-24c-0.1-5.2-0.4-6-2.1-6.3
		c-1.3-0.2-3.7,1.4-6.7,4.2c-5.5,5.3-6.6,9-4.9,17.4c1.3,6.7,2.5,13.3,4.1,22.2c1.7,9.5,3.8,20.5,5.4,28.5c1.6,7.9,0.7,11.8-3,12.3
		c-3.9,0.6-5.7-3.1-7.5-15.6c-3.9-26.2-7.1-44.5-7.9-46.8c-1.2-3.3-5.7-5.9-9.9-5.9c-4.6,0-9.9,2.2-11.2,4.6
		c-0.8,1.6-0.5,2.4,2.1,4.6c4.1,3.5,5.8,7.6,8,19.2c1,5.2,2.6,13.6,3.5,18.5c0.9,4.9,2.3,10.8,3.1,13c0.8,2.2,1.4,5.2,1.4,6.7
		s0.7,4.8,1.6,7.5c0.9,2.6,2.2,7.7,2.9,11.3s1.7,8.3,2.3,10.5c2.2,8.7,5.2,23.1,5.2,25.2c0,2.8,1.7,7.3,2.8,7.3
		C215.3,248,217.5,246.1,219.7,243.8L219.7,243.8z M253.7,224.1c1-1.1,3.1-4.5,4.8-7.8c4.2-8.1,4-13-0.9-21.9
		c-5.2-9.6-6.1-10.4-8.6-7.9c-3.6,3.6-9.1,15.4-9.1,19.5c0,6,7.8,20,11.2,20C251.6,226,252.7,225.1,253.7,224.1L253.7,224.1z
		 M420.2,182.2c-2.9-2.5-1.4-5.7,3.5-7.3c2.1-0.7,7.3-3,11.7-5.2c9.5-4.8,12.2-4.7,12.2,0.1c0,3.3-0.3,3.6-6,5.9
		c-3.3,1.3-8.9,3.7-12.4,5.3c-3.5,1.6-6.5,2.9-6.6,2.9C422.3,184,421.3,183.2,420.2,182.2L420.2,182.2z M86.5,176.2
		c-1.1-0.2-3.1-1.2-4.5-2.2c-4.6-3.2-12.9-7-14.2-6.5c-0.7,0.3-2,1.8-2.9,3.3c-1.9,3.4-5.3,4.5-7.4,2.5c-2.3-2.3-1.9-3.8,3.6-15.1
		c4.1-8.4,5.7-10.7,8-11.5c2.5-0.9,2.9-1.7,3.2-5.6c0.3-4.2,0.5-4.6,3.3-4.8c2.3-0.2,4.8,1,10.6,5.1c9.5,6.8,11.2,7.3,13.8,4.7
		c3.7-3.7,2.8-5.5-6-11.1c-8.5-5.4-11-7.8-11-10.5c0-2.5,1.5-4.1,4.5-4.6c1.3-0.2,2.2-1.5,2.6-3.7c0.5-2.4,3-5.6,8.8-11.3
		c6.6-6.5,8.6-7.9,10.8-7.7c1.5,0.2,3.1,1.1,3.7,2c0.9,1.4,0.5,2.3-1.6,4.6c-1.5,1.6-2.7,3.4-2.7,4.1c0,0.7,3.6,4.7,8,8.8
		c8.2,7.7,9.7,10.7,6.5,13.4c-2.4,2-7.3-0.9-14.1-8.5c-3.2-3.6-6.6-6.6-7.4-6.5s-3.3,1.6-5.5,3.5l-4,3.5l2.5,2
		c1.4,1.1,5.1,4,8.2,6.5c8.8,6.9,9.7,13,3,21c-6.3,7.5-11.4,7.2-24.2-1.5c-6.2-4.2-8.6-4.1-8.8,0.5c-0.1,2-0.4,3.9-0.6,4.4
		c-1.1,1.7,2.5,4.6,10.6,8.5c8.1,3.9,8.4,4.2,8.7,7.8C92.1,175.2,90.2,177,86.5,176.2L86.5,176.2z M413.2,170.8
		c-2.1-2.1-1.3-5.7,2.3-10.9c5.9-8.6,3.7-11.9-3.8-5.8c-4.8,4-7.1,3.6-7.5-1.2c-0.2-3,0.1-3.8,1.8-4.3c1.1-0.4,6.2-3.8,11.2-7.6
		c5-3.8,9.8-6.9,10.6-6.9c5.7,0,6.9,5.7,2.7,13c-3.9,6.8-4.5,8.7-3,9.9c1,0.8,2.2,0.5,4.7-1.3c5.9-4,10.9-3.9,10.9,0.2
		c0,2.7-3.6,5.4-12,9.1c-4.1,1.8-8.7,4.1-10.2,5.2C417.8,172.3,414.9,172.5,413.2,170.8L413.2,170.8z M397.3,146.4
		c-0.3-0.9,0-3.3,0.6-5.4c1.6-4.8,0.7-7.7-3.2-9.7c-2.5-1.3-3.6-1.3-5.9-0.4c-3.5,1.4-5,0.7-5-2.6c0-2.8,4.2-5,19.7-10.5
		c10-3.5,11.8-3.6,13.9-0.4c2.1,3.2,1.4,5.2-5.7,15.9c-3.2,4.9-6.6,10.2-7.4,11.8C402.8,148.3,398.4,149.1,397.3,146.4L397.3,146.4z
		 M406.8,129.8c0.7-0.7,1.2-2,1.2-3.1c0-1.4-0.6-1.8-2.8-1.6c-2.2,0.2-2.8,0.9-3.1,3.1c-0.2,2.1,0.1,2.8,1.5,2.8
		C404.8,131,406.1,130.5,406.8,129.8z M375.2,121.3c-2.2-0.9-1.3-4.9,1.8-7.9c4.3-4.1,4.8-5.3,5.9-14.1c1.3-10.4,1.7-11.5,4.2-11.1
		c3.5,0.5,4.3,3.1,3.1,9c-1.6,7.5-0.3,8.6,6.6,6.3c5.7-1.9,8.7-1.4,9.7,1.6c1,3-0.4,3.8-10,5.9c-7.8,1.7-9.3,2.4-13.6,6.4
		C378.1,122,377.6,122.3,375.2,121.3L375.2,121.3z M364.8,111.9c-1.4-0.8-1.6-1.8-1.1-5.3c0.5-3.6,0.2-4.7-1.6-6.6
		c-1.7-1.7-2.9-2.1-4.9-1.5c-6.5,1.6-9.4,1.8-10.3,0.4c-1.4-2.2-1.1-2.6,3.8-6c2.6-1.8,7.9-5.9,11.7-9c5.4-4.5,7.6-5.8,10.2-5.8
		c6.4,0,6.3,3.9-1,27.9C370.1,111,367.4,113.4,364.8,111.9L364.8,111.9z M368.5,91.5c0-2.2-3.1-3.3-4.7-1.7c-1.7,1.7,0,4.3,2.5,4
		C367.7,93.6,368.5,92.8,368.5,91.5L368.5,91.5z M137.2,103.7c-3.1-2.9-8.2-7.3-11.2-9.6c-5.6-4.4-7.4-6.9-6.4-9.5
		c1.3-3.5,6.2-2.7,10.8,1.7c5.5,5.2,7.6,3.8,4.5-3.2c-2.3-5.1-2.3-6.1-0.6-8.5c2.2-3.1,6.2-2.2,11.3,2.4c3.3,3,4.9,3.9,5.7,3.2
		c0.8-0.8,0.7-1.9-0.2-3.9c-2.8-6.1-3.1-8.3-1-10.3c1.1-1.1,2.9-1.9,3.9-1.9s2.9-0.9,4-2c4.3-4.3,8.1-1.5,11.9,8.9
		c3.3,8.7,6.8,12,9.9,8.9c2-2,1.4-5.1-2.3-13.2c-1.9-4.2-3.5-8.5-3.5-9.4c0-4,4.5-5.5,7.2-2.4c2,2.2,7.8,20.8,7.8,24.8
		c0,5.6-5.8,10.5-12.4,10.5c-3.4,0-8.8-5-12.5-11.5c-3.1-5.4-5.1-6.9-5.1-3.9c0,2.9,3.1,13.7,4.6,15.8c1.9,2.6,1.8,5.1-0.1,7
		c-2.7,2.7-5.5,1.8-10.2-3.4c-7.4-8.1-11.1-5.6-5.7,3.9c3,5.2,3.2,8.7,0.6,10.1C144.7,109.8,143,109.1,137.2,103.7L137.2,103.7z
		 M330.3,90.1c-5.2-2.4-6.4-5.7-3.6-9.8c1.1-1.5,3.4-6.7,5.2-11.4c4.3-11.3,5.8-12.1,14.3-7.6c10,5.3,12.4,12.6,7,20.5
		C346.8,91.3,338.9,94.1,330.3,90.1L330.3,90.1z M342.4,83.9c5.8-4.6,7.1-11.1,3.1-15c-3.2-3-5-2.1-8.6,4.6
		c-3.2,5.7-3.5,9.9-1.1,11.3C338.3,86.4,339.4,86.2,342.4,83.9L342.4,83.9z M197.3,82.3c-0.7-0.3-2.6-4.6-4.2-9.7
		c-1.6-5-3.7-10.8-4.5-12.9c-2-4.6-2-8.2-0.1-9.7c1.8-1.5,10.8-4.1,16.2-4.8c3.5-0.4,4.6,0,7.8,2.7c4,3.5,4.8,7.9,2.1,11.4
		c-2.2,2.8-1.8,4.9,1.3,7.9c4.8,4.6,5.6,3.7,4.8-4.9c-0.4-4.2-1.2-9.4-1.8-11.5c-1.5-5,0-8.9,3.5-8.9c1.3,0,2.9,0.6,3.6,1.4
		c1.4,1.7,5.3,27.4,4.5,29.8c-0.7,2.3-3,3-5.9,1.9c-1.9-0.7-2.8-0.5-4.1,1c-3.1,3.4-7,2.5-10.7-2.5c-5.3-7.1-9.6-8.5-8.4-2.7
		c1.7,8.2,1.8,9.2,0.6,10.6C200.7,83,199.5,83.2,197.3,82.3L197.3,82.3z M203.5,60.5c6.8-2.8,3.2-9.3-3.7-6.7
		c-3.1,1.2-4.2,4.6-2.2,6.6C199.5,62.3,199.3,62.3,203.5,60.5L203.5,60.5z M313.7,82.4c-0.4-0.4-0.7-3.7-0.7-7.4
		c0-7.5-1.7-11.3-3.9-8.7c-0.7,0.8-2.3,4.1-3.5,7.3c-2.4,6.1-4.8,7.8-6.5,4.6c-1-1.8,1.3-12.4,3.6-16.9c0.5-1,1.2-3.8,1.5-6.1
		c0.6-4.9,2.2-7.2,4.8-7.2c2.9,0,4.7,2.5,5.4,7.7c1.3,8.6,5.7,12.5,7.1,6c1-4.6,3.2-7.8,5.5-7.8c3.6,0,3.4,4.1-0.5,11.9
		c-2,3.9-4.2,9.3-4.8,11.9c-1,4.2-1.5,4.7-4.2,5C315.8,83,314.1,82.8,313.7,82.4L313.7,82.4z M287.1,72.5c-1.6-3.7-2.5-4.5-4.7-4.5
		c-1.6,0-4.1,1.3-6.1,3c-2.6,2.3-4,2.9-5.6,2.3c-1.2-0.4-4-1-6.2-1.3c-4-0.6-4-0.6-4.5-5.5c-0.4-4.2-1-5.2-3.3-6.5
		c-2.7-1.4-2.9-1.4-4.8,0.8c-1.3,1.5-1.9,3.9-1.9,6.8c0,4.8-1.9,6.6-4.9,4.7c-1.3-0.8-1.8-3.7-2.4-13.9c-0.9-15.9-0.6-17.4,3.2-17.4
		c3.2,0,4.1,1.4,4.1,6.5c0,9,9.7,8.5,10.9-0.5c0.7-5,3-7.1,5.6-5c1.4,1.2,1.6,2.5,1,8.8c-0.4,4.1-0.9,8.6-1.2,10
		c-0.3,1.5,0.1,3.5,0.9,4.6c2.2,3,4,0.9,9.7-11.1c3.9-8.3,5.4-10.4,7.4-10.9c5.2-1.3,6.9,2.8,8.5,19.6c1,10.5,0.4,14-2.5,14
		C289.7,77,288.2,75,287.1,72.5L287.1,72.5z M285.3,60.3c0.8-0.8-1.1-3.3-2.4-3.3c-0.5,0-0.9,0.9-0.9,2
		C282,60.9,283.9,61.7,285.3,60.3L285.3,60.3z"/>
</g>
</svg>
